<?xml version="1.0" encoding="UTF-8" standalone="no"?>
<!DOCTYPE svg PUBLIC "-//W3C//DTD SVG 1.1//EN"
 "http://www.w3.org/Graphics/SVG/1.1/DTD/svg11.dtd">
<!-- Generated by graphviz version 2.38.0 (20140413.2041)
 -->
<!-- Title: %3 Pages: 1 -->
<svg width="566pt" height="159pt"
 viewBox="0.00 0.00 566.08 158.52" xmlns="http://www.w3.org/2000/svg" xmlns:xlink="http://www.w3.org/1999/xlink">
<g id="graph0" class="graph" transform="scale(1 1) rotate(0) translate(4 154.516)">
<title>%3</title>
<polygon fill="white" stroke="none" points="-4,4 -4,-154.516 562.081,-154.516 562.081,4 -4,4"/>
<!-- low&#45;priority -->
<g id="node1" class="node"><title>low&#45;priority</title>
<ellipse fill="none" stroke="cornflowerblue" cx="148.295" cy="-73.6468" rx="53.1055" ry="53.1055"/>
<ellipse fill="none" stroke="cornflowerblue" cx="148.295" cy="-73.6468" rx="57.0913" ry="57.0913"/>
<text text-anchor="middle" x="148.295" y="-69.9468" font-family="Times New Roman,serif" font-size="14.00">low&#45;priority</text>
</g>
<!-- high&#45;priority -->
<g id="node2" class="node"><title>high&#45;priority</title>
<ellipse fill="none" stroke="cornflowerblue" cx="407.836" cy="-73.6468" rx="55.4746" ry="55.4746"/>
<ellipse fill="none" stroke="cornflowerblue" cx="407.836" cy="-73.6468" rx="59.4912" ry="59.4912"/>
<text text-anchor="middle" x="407.836" y="-69.9468" font-family="Times New Roman,serif" font-size="14.00">high&#45;priority</text>
</g>
<!-- low&#45;priority&#45;&gt;high&#45;priority -->
<g id="edge6" class="edge"><title>low&#45;priority&#45;&gt;high&#45;priority</title>
<path fill="none" stroke="black" d="M205.814,-73.6468C244.799,-73.6468 296.847,-73.6468 338.214,-73.6468"/>
<polygon fill="black" stroke="black" points="338.216,-77.1469 348.216,-73.6468 338.216,-70.1469 338.216,-77.1469"/>
<text text-anchor="middle" x="277.091" y="-77.4468" font-family="Times New Roman,serif" font-size="14.00">wait&#45;time exceeded</text>
</g>
<!-- s4 -->
<g id="node6" class="node"><title>s4</title>
<ellipse fill="none" stroke="black" cx="531.081" cy="-103.647" rx="27" ry="18"/>
<text text-anchor="middle" x="531.081" y="-99.9468" font-family="Times New Roman,serif" font-size="14.00">s4</text>
</g>
<!-- low&#45;priority&#45;&gt;s4 -->
<g id="edge4" class="edge"><title>low&#45;priority&#45;&gt;s4</title>
<path fill="none" stroke="black" d="M200.947,-96.5267C240.483,-112.734 296.837,-133.061 348.591,-141.647 400.543,-150.266 416.346,-155.763 467.081,-141.647 480.48,-137.918 493.879,-130.487 504.854,-123.177"/>
<polygon fill="black" stroke="black" points="506.903,-126.015 513.089,-117.413 502.889,-120.28 506.903,-126.015"/>
</g>
<!-- s5 -->
<g id="node7" class="node"><title>s5</title>
<ellipse fill="none" stroke="black" cx="531.081" cy="-18.6468" rx="27" ry="18"/>
<text text-anchor="middle" x="531.081" y="-14.9468" font-family="Times New Roman,serif" font-size="14.00">s5</text>
</g>
<!-- low&#45;priority&#45;&gt;s5 -->
<g id="edge5" class="edge"><title>low&#45;priority&#45;&gt;s5</title>
<path fill="none" stroke="black" d="M200.947,-50.7669C240.483,-34.5598 296.837,-14.2331 348.591,-5.64682 400.543,2.97233 414.691,-0.297849 467.081,-5.64682 476.445,-6.60285 486.471,-8.33843 495.709,-10.2367"/>
<polygon fill="black" stroke="black" points="495.212,-13.7102 505.727,-12.416 496.7,-6.87016 495.212,-13.7102"/>
</g>
<!-- high&#45;priority&#45;&gt;s4 -->
<g id="edge7" class="edge"><title>high&#45;priority&#45;&gt;s4</title>
<path fill="none" stroke="black" d="M465.553,-87.6806C475.873,-90.234 486.344,-92.8248 495.763,-95.1556"/>
<polygon fill="black" stroke="black" points="494.967,-98.5641 505.515,-97.5685 496.649,-91.769 494.967,-98.5641"/>
</g>
<!-- high&#45;priority&#45;&gt;s5 -->
<g id="edge8" class="edge"><title>high&#45;priority&#45;&gt;s5</title>
<path fill="none" stroke="black" d="M462.016,-49.523C474.614,-43.8082 487.647,-37.8958 498.895,-32.7934"/>
<polygon fill="black" stroke="black" points="500.604,-35.8618 508.265,-28.5432 497.712,-29.487 500.604,-35.8618"/>
</g>
<!-- s1 -->
<g id="node3" class="node"><title>s1</title>
<ellipse fill="none" stroke="black" cx="27" cy="-127.647" rx="27" ry="18"/>
<text text-anchor="middle" x="27" y="-123.947" font-family="Times New Roman,serif" font-size="14.00">s1</text>
</g>
<!-- s1&#45;&gt;low&#45;priority -->
<g id="edge1" class="edge"><title>s1&#45;&gt;low&#45;priority</title>
<path fill="none" stroke="black" d="M49.8806,-117.742C60.3739,-112.993 73.5163,-107.043 86.7193,-101.067"/>
<polygon fill="black" stroke="black" points="88.171,-104.252 95.8378,-96.9395 85.2843,-97.8748 88.171,-104.252"/>
</g>
<!-- s2 -->
<g id="node4" class="node"><title>s2</title>
<ellipse fill="none" stroke="black" cx="27" cy="-73.6468" rx="27" ry="18"/>
<text text-anchor="middle" x="27" y="-69.9468" font-family="Times New Roman,serif" font-size="14.00">s2</text>
</g>
<!-- s2&#45;&gt;low&#45;priority -->
<g id="edge2" class="edge"><title>s2&#45;&gt;low&#45;priority</title>
<path fill="none" stroke="black" d="M54.1799,-73.6468C62.1381,-73.6468 71.2715,-73.6468 80.6388,-73.6468"/>
<polygon fill="black" stroke="black" points="80.8505,-77.1469 90.8505,-73.6468 80.8504,-70.1469 80.8505,-77.1469"/>
</g>
<!-- s3 -->
<g id="node5" class="node"><title>s3</title>
<ellipse fill="none" stroke="black" cx="27" cy="-19.6468" rx="27" ry="18"/>
<text text-anchor="middle" x="27" y="-15.9468" font-family="Times New Roman,serif" font-size="14.00">s3</text>
</g>
<!-- s3&#45;&gt;low&#45;priority -->
<g id="edge3" class="edge"><title>s3&#45;&gt;low&#45;priority</title>
<path fill="none" stroke="black" d="M49.8806,-29.5512C60.3739,-34.3011 73.5163,-40.2501 86.7193,-46.2266"/>
<polygon fill="black" stroke="black" points="85.2843,-49.4189 95.8378,-50.3541 88.171,-43.0418 85.2843,-49.4189"/>
</g>
</g>
</svg>
