<svg height="542.65625" version="1.1" width="384.5" xmlns="http://www.w3.org/2000/svg" xmlns:xlink="http://www.w3.org/1999/xlink" viewBox="0 0 384.5 542.65625" preserveAspectRatio="xMidYMid meet" style="overflow: hidden; position: relative;"><desc style="-webkit-tap-highlight-color: rgba(0, 0, 0, 0);">Created with Raphaël @@VERSION</desc><defs style="-webkit-tap-highlight-color: rgba(0, 0, 0, 0);"><path stroke-linecap="round" d="M5,0 0,2.5 5,5z" id="raphael-marker-block" style="-webkit-tap-highlight-color: rgba(0, 0, 0, 0);"></path><marker id="raphael-marker-endblock33-obj13" markerHeight="3" markerWidth="3" orient="auto" refX="1.5" refY="1.5" style="-webkit-tap-highlight-color: rgba(0, 0, 0, 0);"><use xlink:href="#raphael-marker-block" transform="rotate(180 1.5 1.5) scale(0.6,0.6)" stroke-width="1.6667" fill="black" stroke="none" style="-webkit-tap-highlight-color: rgba(0, 0, 0, 0);"></use></marker><marker id="raphael-marker-endblock33-obj14" markerHeight="3" markerWidth="3" orient="auto" refX="1.5" refY="1.5" style="-webkit-tap-highlight-color: rgba(0, 0, 0, 0);"><use xlink:href="#raphael-marker-block" transform="rotate(180 1.5 1.5) scale(0.6,0.6)" stroke-width="1.6667" fill="black" stroke="none" style="-webkit-tap-highlight-color: rgba(0, 0, 0, 0);"></use></marker><marker id="raphael-marker-endblock33-obj15" markerHeight="3" markerWidth="3" orient="auto" refX="1.5" refY="1.5" style="-webkit-tap-highlight-color: rgba(0, 0, 0, 0);"><use xlink:href="#raphael-marker-block" transform="rotate(180 1.5 1.5) scale(0.6,0.6)" stroke-width="1.6667" fill="black" stroke="none" style="-webkit-tap-highlight-color: rgba(0, 0, 0, 0);"></use></marker><marker id="raphael-marker-endblock33-obj17" markerHeight="3" markerWidth="3" orient="auto" refX="1.5" refY="1.5" style="-webkit-tap-highlight-color: rgba(0, 0, 0, 0);"><use xlink:href="#raphael-marker-block" transform="rotate(180 1.5 1.5) scale(0.6,0.6)" stroke-width="1.6667" fill="black" stroke="none" style="-webkit-tap-highlight-color: rgba(0, 0, 0, 0);"></use></marker><marker id="raphael-marker-endblock33-obj19" markerHeight="3" markerWidth="3" orient="auto" refX="1.5" refY="1.5" style="-webkit-tap-highlight-color: rgba(0, 0, 0, 0);"><use xlink:href="#raphael-marker-block" transform="rotate(180 1.5 1.5) scale(0.6,0.6)" stroke-width="1.6667" fill="black" stroke="none" style="-webkit-tap-highlight-color: rgba(0, 0, 0, 0);"></use></marker><marker id="raphael-marker-endblock33-obj20" markerHeight="3" markerWidth="3" orient="auto" refX="1.5" refY="1.5" style="-webkit-tap-highlight-color: rgba(0, 0, 0, 0);"><use xlink:href="#raphael-marker-block" transform="rotate(180 1.5 1.5) scale(0.6,0.6)" stroke-width="1.6667" fill="black" stroke="none" style="-webkit-tap-highlight-color: rgba(0, 0, 0, 0);"></use></marker></defs><rect x="0" y="0" width="50" height="36" rx="20" ry="20" fill="#ffffff" stroke="#000000" stroke-width="3" class="flowchart" id="st" transform="matrix(1,0,0,1,68.5,27.6094)" style="-webkit-tap-highlight-color: rgba(0, 0, 0, 0);"></rect><text x="10" y="18" text-anchor="start" font-family="&quot;Arial&quot;" font-size="14px" stroke="none" fill="#000000" id="stt" class="flowchartt" transform="matrix(1,0,0,1,68.5,27.6094)" stroke-width="1" style="-webkit-tap-highlight-color: rgba(0, 0, 0, 0); text-anchor: start; font-family: Arial; font-size: 14px;"><tspan dy="5" style="-webkit-tap-highlight-color: rgba(0, 0, 0, 0);">Start</tspan></text><rect x="0" y="0" width="105" height="36" rx="0" ry="0" fill="#ffffff" stroke="#000000" stroke-width="3" class="flowchart" id="op1" transform="matrix(1,0,0,1,41,141.2188)" style="-webkit-tap-highlight-color: rgba(0, 0, 0, 0);"></rect><text x="10" y="18" text-anchor="start" font-family="&quot;Arial&quot;" font-size="14px" stroke="none" fill="#000000" id="op1t" class="flowchartt" transform="matrix(1,0,0,1,41,141.2188)" stroke-width="1" style="-webkit-tap-highlight-color: rgba(0, 0, 0, 0); text-anchor: start; font-family: Arial; font-size: 14px;"><tspan dy="5" style="-webkit-tap-highlight-color: rgba(0, 0, 0, 0);">My Operation</tspan></text><path fill="#ffffff" stroke="#000000" d="M27,19.8046875L0,39.609375L54,79.21875L108,39.609375L54,0L0,39.609375" stroke-width="3" id="cond" class="flowchart" transform="matrix(1,0,0,1,39.5,233.2188)" style="-webkit-tap-highlight-color: rgba(0, 0, 0, 0);"></path><text x="32" y="39.609375" text-anchor="start" font-family="&quot;Arial&quot;" font-size="14px" stroke="none" fill="#000000" id="condt" class="flowchartt" transform="matrix(1,0,0,1,39.5,233.2188)" stroke-width="1" style="-webkit-tap-highlight-color: rgba(0, 0, 0, 0); text-anchor: start; font-family: Arial; font-size: 14px;"><tspan dy="-3.40625" style="-webkit-tap-highlight-color: rgba(0, 0, 0, 0);">Yes</tspan><tspan dy="16.8" x="32" style="-webkit-tap-highlight-color: rgba(0, 0, 0, 0);">or No?</tspan></text><path fill="#ffffff" stroke="#000000" d="M10,18L0,36L155,36L175,0L20,0L10,18" stroke-width="3" id="io" class="flowchart" transform="matrix(1,0,0,1,6,390.0469)" style="-webkit-tap-highlight-color: rgba(0, 0, 0, 0);"></path><text x="30" y="18" text-anchor="start" font-family="&quot;Arial&quot;" font-size="14px" stroke="none" fill="#000000" id="iot" class="flowchartt" transform="matrix(1,0,0,1,6,390.0469)" stroke-width="1" style="-webkit-tap-highlight-color: rgba(0, 0, 0, 0); text-anchor: start; font-family: Arial; font-size: 14px;"><tspan dy="5" style="-webkit-tap-highlight-color: rgba(0, 0, 0, 0);">catch something...</tspan></text><rect x="0" y="0" width="45" height="36" rx="20" ry="20" fill="#ffffff" stroke="#000000" stroke-width="3" class="flowchart" id="e" transform="matrix(1,0,0,1,71,503.6563)" style="-webkit-tap-highlight-color: rgba(0, 0, 0, 0);"></rect><text x="10" y="18" text-anchor="start" font-family="&quot;Arial&quot;" font-size="14px" stroke="none" fill="#000000" id="et" class="flowchartt" transform="matrix(1,0,0,1,71,503.6563)" stroke-width="1" style="-webkit-tap-highlight-color: rgba(0, 0, 0, 0); text-anchor: start; font-family: Arial; font-size: 14px;"><tspan dy="5" style="-webkit-tap-highlight-color: rgba(0, 0, 0, 0);">End</tspan></text><rect x="0" y="0" width="131" height="36" rx="0" ry="0" fill="#ffffff" stroke="#000000" stroke-width="3" class="flowchart" id="sub1" transform="matrix(1,0,0,1,225.5,254.8281)" style="-webkit-tap-highlight-color: rgba(0, 0, 0, 0);"></rect><rect x="10" y="0" width="111" height="36" rx="0" ry="0" fill="#ffffff" stroke="#000000" stroke-width="3" id="sub1i" transform="matrix(1,0,0,1,225.5,254.8281)" style="-webkit-tap-highlight-color: rgba(0, 0, 0, 0);"></rect><text x="20" y="18" text-anchor="start" font-family="&quot;Arial&quot;" font-size="14px" stroke="none" fill="#000000" id="sub1t" class="flowchartt" transform="matrix(1,0,0,1,225.5,254.8281)" stroke-width="1" style="-webkit-tap-highlight-color: rgba(0, 0, 0, 0); text-anchor: start; font-family: Arial; font-size: 14px;"><tspan dy="5" style="-webkit-tap-highlight-color: rgba(0, 0, 0, 0);">My Subroutine</tspan></text><path fill="none" stroke="#000000" d="M93.5,63.609375C93.5,63.609375,93.5,120.14694494009018,93.5,136.71068613347597" stroke-width="3" marker-end="url(#raphael-marker-endblock33-obj13)" style="-webkit-tap-highlight-color: rgba(0, 0, 0, 0);"></path><path fill="none" stroke="#000000" d="M93.5,177.21875C93.5,177.21875,93.5,215.41952085494995,93.5,228.71891031763516" stroke-width="3" marker-end="url(#raphael-marker-endblock33-obj14)" style="-webkit-tap-highlight-color: rgba(0, 0, 0, 0);"></path><path fill="none" stroke="#000000" d="M93.5,312.4375C93.5,312.4375,93.5,368.9750699400902,93.5,385.538811133476" stroke-width="3" marker-end="url(#raphael-marker-endblock33-obj15)" style="-webkit-tap-highlight-color: rgba(0, 0, 0, 0);"></path><text x="98.5" y="322.4375" text-anchor="start" font-family="&quot;Arial&quot;" font-size="14px" stroke="none" fill="#000000" stroke-width="1" style="-webkit-tap-highlight-color: rgba(0, 0, 0, 0); text-anchor: start; font-family: Arial; font-size: 14px;"><tspan dy="5" style="-webkit-tap-highlight-color: rgba(0, 0, 0, 0);">yes</tspan></text><path fill="none" stroke="#000000" d="M147.5,272.828125C147.5,272.828125,204.38716840744019,272.828125,220.99777715140954,272.828125" stroke-width="3" marker-end="url(#raphael-marker-endblock33-obj17)" style="-webkit-tap-highlight-color: rgba(0, 0, 0, 0);"></path><text x="152.5" y="262.828125" text-anchor="start" font-family="&quot;Arial&quot;" font-size="14px" stroke="none" fill="#000000" stroke-width="1" style="-webkit-tap-highlight-color: rgba(0, 0, 0, 0); text-anchor: start; font-family: Arial; font-size: 14px;"><tspan dy="5" style="-webkit-tap-highlight-color: rgba(0, 0, 0, 0);">no</tspan></text><path fill="none" stroke="#000000" d="M93.5,426.046875C93.5,426.046875,93.5,482.5844449400902,93.5,499.148186133476" stroke-width="3" marker-end="url(#raphael-marker-endblock33-obj19)" style="-webkit-tap-highlight-color: rgba(0, 0, 0, 0);"></path><path fill="none" stroke="#000000" d="M356.5,272.828125C356.5,272.828125,381.5,272.828125,381.5,272.828125C381.5,272.828125,381.5,116.21875,381.5,116.21875C381.5,116.21875,93.5,116.21875,93.5,116.21875C93.5,116.21875,93.5,129.52272129058838,93.5,136.7203776333481" stroke-width="3" marker-end="url(#raphael-marker-endblock33-obj20)" style="-webkit-tap-highlight-color: rgba(0, 0, 0, 0);"></path></svg>